<svg width="781" height="650" viewBox="0 0 781 650" fill="none" xmlns="http://www.w3.org/2000/svg">
<path d="M374.2 648.2C373.133 648.733 372.067 649 371 649C369.933 649 367.8 649 364.6 649C357.133 649 348.333 647.667 338.2 645C328.6 642.867 319 639.933 309.4 636.2C300.333 633 292.333 629.267 285.4 625C279 620.733 275 617 273.4 613.8C272.867 606.333 272.6 598.6 272.6 590.6C272.6 582.6 272.6 574.867 272.6 567.4C272.6 507.667 276.867 445.267 285.4 380.2C294.467 315.133 309.133 244.733 329.4 169C331.533 161.533 333.667 152.2 335.8 141C338.467 129.267 341.133 116.733 343.8 103.4C331 113.533 315.8 129.8 298.2 152.2C280.6 174.067 261.933 200.2 242.2 230.6C223 260.467 203.533 293.533 183.8 329.8C164.6 365.533 147 402.067 131 439.4C115 476.2 101.133 512.733 89.4 549C78.2 585.267 71.2667 618.867 68.6 649.8C43 642.333 25.1333 634.867 15 627.4C5.4 619.933 0.600002 610.867 0.600002 600.2C0.600002 590.6 3.53334 577 9.4 559.4C15.2667 541.8 23.5333 521 34.2 497C44.8667 473 57.9333 446.333 73.4 417C88.8667 387.133 105.933 355.133 124.6 321C145.933 282.067 166.733 245.533 187 211.4C207.8 177.267 228.067 146.333 247.8 118.6C267.533 90.8666 286.733 66.8666 305.4 46.6C324.6 26.3333 343.533 10.8666 362.2 0.199951C369.667 0.199951 379.533 2.06663 391.8 5.79997C404.6 9.53329 416.867 14.0666 428.6 19.4C440.867 24.7333 451.533 30.3333 460.6 36.2C470.2 41.5333 475.533 46.0666 476.6 49.8C469.133 64.7333 460.333 87.1333 450.2 117C440.067 146.867 429.667 180.733 419 218.6C408.867 256.467 399 296.733 389.4 339.4C380.333 381.533 373.133 422.067 367.8 461C380.067 431.667 394.2 401.267 410.2 369.8C426.733 337.8 444.067 306.333 462.2 275.4C480.333 243.933 498.733 213.533 517.4 184.2C536.6 154.867 555.267 128.2 573.4 104.2C591.533 79.6667 608.333 58.3333 623.8 40.2C639.8 22.0666 653.933 8.7333 666.2 0.199951C673.667 0.199951 683.533 2.06663 695.8 5.79997C708.6 9.53329 720.867 14.0666 732.6 19.4C744.867 24.7333 755.533 30.3333 764.6 36.2C774.2 41.5333 779.533 46.0666 780.6 49.8C763.533 80.2 748.6 117.267 735.8 161C723 204.733 712.067 250.6 703 298.6C694.467 346.6 687.8 394.333 683 441.8C678.733 488.733 676.6 530.867 676.6 568.2C676.6 580.467 676.6 593.267 676.6 606.6C676.6 619.933 677.133 633.8 678.2 648.2C670.733 648.2 661.667 647.133 651 645C640.867 643.4 630.733 641 620.6 637.8C611 634.6 602.2 630.867 594.2 626.6C586.2 622.867 580.6 618.6 577.4 613.8C576.867 606.333 576.6 598.6 576.6 590.6C576.6 582.6 576.6 574.867 576.6 567.4C576.6 507.667 580.867 445.267 589.4 380.2C598.467 315.133 613.133 244.733 633.4 169C635.533 161.533 637.933 151.4 640.6 138.6C643.267 125.8 645.933 112.467 648.6 98.6C633.667 106.067 616.6 120.467 597.4 141.8C578.733 162.6 559.533 188.2 539.8 218.6C520.6 248.467 501.4 281.8 482.2 318.6C463.533 355.4 446.467 393 431 431.4C416.067 469.267 403.267 507.133 392.6 545C382.467 582.333 376.333 616.733 374.2 648.2Z" fill="black"/>
</svg>
